<mxfile host="app.diagrams.net" modified="2023-06-22T16:02:48.317Z" agent="Mozilla/5.0 (Windows NT 10.0; Win64; x64) AppleWebKit/537.36 (KHTML, like Gecko) Chrome/114.0.0.0 Safari/537.36" etag="RTUGoOj5o8uqxm8IRnQ1" version="21.5.0" type="device">
  <diagram name="페이지-1" id="hCZEA4SWdRbqyfTR73-0">
    <mxGraphModel dx="2261" dy="704" grid="1" gridSize="10" guides="1" tooltips="1" connect="1" arrows="1" fold="1" page="1" pageScale="1" pageWidth="827" pageHeight="1169" math="0" shadow="0">
      <root>
        <mxCell id="0" />
        <mxCell id="1" parent="0" />
        <mxCell id="dNC86ZQWFl57OsV2Cq-r-1" value="&lt;font color=&quot;#fafafa&quot; style=&quot;font-size: 18px;&quot;&gt;&lt;b style=&quot;&quot;&gt;Attendance App&lt;/b&gt;&lt;/font&gt;" style="rounded=0;whiteSpace=wrap;html=1;strokeWidth=3;fillColor=#0A0A0A;" parent="1" vertex="1">
          <mxGeometry x="324" y="70" width="180" height="60" as="geometry" />
        </mxCell>
        <mxCell id="dNC86ZQWFl57OsV2Cq-r-5" value="&lt;font size=&quot;1&quot; color=&quot;#fafafa&quot;&gt;&lt;b style=&quot;font-size: 16px;&quot;&gt;로그인 화면&lt;/b&gt;&lt;/font&gt;" style="rounded=0;whiteSpace=wrap;html=1;strokeWidth=3;fillColor=#0A0A0A;" parent="1" vertex="1">
          <mxGeometry x="344" y="210" width="140" height="30" as="geometry" />
        </mxCell>
        <mxCell id="dNC86ZQWFl57OsV2Cq-r-7" value="&lt;span style=&quot;font-size: 14px;&quot;&gt;로그인 기능&lt;/span&gt;" style="rounded=0;whiteSpace=wrap;html=1;strokeWidth=2;" parent="1" vertex="1">
          <mxGeometry x="344" y="250" width="140" height="30" as="geometry" />
        </mxCell>
        <mxCell id="dNC86ZQWFl57OsV2Cq-r-8" value="&lt;font style=&quot;font-size: 15px;&quot;&gt;&lt;b&gt;&lt;i&gt;login.html&lt;/i&gt;&lt;/b&gt;&lt;/font&gt;" style="text;html=1;strokeColor=none;fillColor=none;align=left;verticalAlign=middle;whiteSpace=wrap;rounded=0;" parent="1" vertex="1">
          <mxGeometry x="344" y="180" width="100" height="30" as="geometry" />
        </mxCell>
        <mxCell id="l5bOxNPtONh7WhocYYk5-1" value="&lt;font color=&quot;#fafafa&quot;&gt;&lt;span style=&quot;font-size: 16px;&quot;&gt;&lt;b&gt;메인 화면&lt;/b&gt;&lt;/span&gt;&lt;/font&gt;" style="rounded=0;whiteSpace=wrap;html=1;strokeWidth=3;fillColor=#0A0A0A;" parent="1" vertex="1">
          <mxGeometry x="344" y="360" width="140" height="30" as="geometry" />
        </mxCell>
        <mxCell id="l5bOxNPtONh7WhocYYk5-2" value="&lt;span style=&quot;font-size: 14px;&quot;&gt;입실&lt;/span&gt;" style="rounded=0;whiteSpace=wrap;html=1;strokeWidth=2;" parent="1" vertex="1">
          <mxGeometry x="344" y="400" width="140" height="30" as="geometry" />
        </mxCell>
        <mxCell id="l5bOxNPtONh7WhocYYk5-3" value="&lt;span style=&quot;font-size: 15px;&quot;&gt;&lt;b&gt;&lt;i&gt;index.html&lt;/i&gt;&lt;/b&gt;&lt;/span&gt;" style="text;html=1;strokeColor=none;fillColor=none;align=left;verticalAlign=middle;whiteSpace=wrap;rounded=0;" parent="1" vertex="1">
          <mxGeometry x="344" y="330" width="136" height="30" as="geometry" />
        </mxCell>
        <mxCell id="l5bOxNPtONh7WhocYYk5-4" value="&lt;span style=&quot;font-size: 14px;&quot;&gt;퇴실&lt;/span&gt;" style="rounded=0;whiteSpace=wrap;html=1;strokeWidth=2;" parent="1" vertex="1">
          <mxGeometry x="344" y="440" width="140" height="30" as="geometry" />
        </mxCell>
        <mxCell id="l5bOxNPtONh7WhocYYk5-5" value="&lt;span style=&quot;font-size: 14px;&quot;&gt;관리 페이지 이동&lt;/span&gt;" style="rounded=0;whiteSpace=wrap;html=1;strokeWidth=2;" parent="1" vertex="1">
          <mxGeometry x="344" y="480" width="140" height="30" as="geometry" />
        </mxCell>
        <mxCell id="l5bOxNPtONh7WhocYYk5-6" value="&lt;font color=&quot;#fafafa&quot;&gt;&lt;span style=&quot;font-size: 16px;&quot;&gt;&lt;b&gt;관리자 페이지&lt;/b&gt;&lt;/span&gt;&lt;/font&gt;" style="rounded=0;whiteSpace=wrap;html=1;strokeWidth=3;fillColor=#0A0A0A;" parent="1" vertex="1">
          <mxGeometry x="228.5" y="615" width="140" height="30" as="geometry" />
        </mxCell>
        <mxCell id="l5bOxNPtONh7WhocYYk5-7" value="&lt;span style=&quot;font-size: 14px;&quot;&gt;QR코드 생성&lt;/span&gt;" style="rounded=0;whiteSpace=wrap;html=1;strokeWidth=2;" parent="1" vertex="1">
          <mxGeometry x="231.5" y="825" width="140" height="30" as="geometry" />
        </mxCell>
        <mxCell id="l5bOxNPtONh7WhocYYk5-8" value="&lt;span style=&quot;font-size: 15px;&quot;&gt;&lt;b&gt;&lt;i&gt;manage.html&lt;/i&gt;&lt;/b&gt;&lt;/span&gt;" style="text;html=1;strokeColor=none;fillColor=none;align=left;verticalAlign=middle;whiteSpace=wrap;rounded=0;" parent="1" vertex="1">
          <mxGeometry x="228.5" y="585" width="141.5" height="30" as="geometry" />
        </mxCell>
        <mxCell id="l5bOxNPtONh7WhocYYk5-9" value="&lt;span style=&quot;font-size: 14px;&quot;&gt;관리자 등록 / 해제&lt;/span&gt;" style="rounded=0;whiteSpace=wrap;html=1;strokeWidth=2;" parent="1" vertex="1">
          <mxGeometry x="230" y="695" width="140" height="30" as="geometry" />
        </mxCell>
        <mxCell id="l5bOxNPtONh7WhocYYk5-10" value="&lt;span style=&quot;font-size: 14px;&quot;&gt;강의&lt;/span&gt;" style="rounded=0;whiteSpace=wrap;html=1;strokeWidth=2;" parent="1" vertex="1">
          <mxGeometry x="230" y="735" width="140" height="30" as="geometry" />
        </mxCell>
        <mxCell id="l5bOxNPtONh7WhocYYk5-16" value="&lt;font color=&quot;#fafafa&quot;&gt;&lt;span style=&quot;font-size: 16px;&quot;&gt;&lt;b&gt;입실 등록 페이지&lt;/b&gt;&lt;/span&gt;&lt;/font&gt;" style="rounded=0;whiteSpace=wrap;html=1;strokeWidth=3;fillColor=#0A0A0A;" parent="1" vertex="1">
          <mxGeometry x="451.5" y="615" width="140" height="30" as="geometry" />
        </mxCell>
        <mxCell id="l5bOxNPtONh7WhocYYk5-17" value="&lt;span style=&quot;font-size: 14px;&quot;&gt;QR코드 스캔&lt;/span&gt;" style="rounded=0;whiteSpace=wrap;html=1;strokeWidth=2;" parent="1" vertex="1">
          <mxGeometry x="451.5" y="655" width="140" height="30" as="geometry" />
        </mxCell>
        <mxCell id="l5bOxNPtONh7WhocYYk5-18" value="&lt;span style=&quot;font-size: 15px;&quot;&gt;&lt;b&gt;&lt;i&gt;class_start.html&lt;/i&gt;&lt;/b&gt;&lt;/span&gt;" style="text;html=1;strokeColor=none;fillColor=none;align=left;verticalAlign=middle;whiteSpace=wrap;rounded=0;" parent="1" vertex="1">
          <mxGeometry x="451.5" y="585" width="138.5" height="30" as="geometry" />
        </mxCell>
        <mxCell id="l5bOxNPtONh7WhocYYk5-19" value="&lt;span style=&quot;font-size: 14px;&quot;&gt;DB에 입실 등록&lt;/span&gt;" style="rounded=0;whiteSpace=wrap;html=1;strokeWidth=2;" parent="1" vertex="1">
          <mxGeometry x="451.5" y="695" width="140" height="30" as="geometry" />
        </mxCell>
        <mxCell id="l5bOxNPtONh7WhocYYk5-21" value="&lt;font color=&quot;#fafafa&quot;&gt;&lt;span style=&quot;font-size: 16px;&quot;&gt;&lt;b&gt;설문 조사 페이지&lt;/b&gt;&lt;/span&gt;&lt;/font&gt;" style="rounded=0;whiteSpace=wrap;html=1;strokeWidth=3;fillColor=#0A0A0A;" parent="1" vertex="1">
          <mxGeometry x="678.5" y="615" width="140" height="30" as="geometry" />
        </mxCell>
        <mxCell id="l5bOxNPtONh7WhocYYk5-22" value="&lt;span style=&quot;font-size: 14px;&quot;&gt;설문 조사&lt;/span&gt;" style="rounded=0;whiteSpace=wrap;html=1;strokeWidth=2;" parent="1" vertex="1">
          <mxGeometry x="678.5" y="655" width="140" height="30" as="geometry" />
        </mxCell>
        <mxCell id="l5bOxNPtONh7WhocYYk5-23" value="&lt;span style=&quot;font-size: 15px;&quot;&gt;&lt;b&gt;&lt;i&gt;class_survey.html&lt;/i&gt;&lt;/b&gt;&lt;/span&gt;" style="text;html=1;strokeColor=none;fillColor=none;align=left;verticalAlign=middle;whiteSpace=wrap;rounded=0;" parent="1" vertex="1">
          <mxGeometry x="678.5" y="585" width="141.5" height="30" as="geometry" />
        </mxCell>
        <mxCell id="l5bOxNPtONh7WhocYYk5-24" value="&lt;span style=&quot;font-size: 14px;&quot;&gt;퇴실 등록 페이지 이동&lt;/span&gt;" style="rounded=0;whiteSpace=wrap;html=1;strokeWidth=2;" parent="1" vertex="1">
          <mxGeometry x="678.5" y="695" width="140" height="30" as="geometry" />
        </mxCell>
        <mxCell id="l5bOxNPtONh7WhocYYk5-26" value="&lt;font color=&quot;#fafafa&quot;&gt;&lt;span style=&quot;font-size: 16px;&quot;&gt;&lt;b&gt;수강생 정보 페이지&lt;/b&gt;&lt;/span&gt;&lt;/font&gt;" style="rounded=0;whiteSpace=wrap;html=1;strokeWidth=3;fillColor=#0A0A0A;" parent="1" vertex="1">
          <mxGeometry x="9.5" y="615" width="140" height="30" as="geometry" />
        </mxCell>
        <mxCell id="l5bOxNPtONh7WhocYYk5-27" value="&lt;span style=&quot;font-size: 14px;&quot;&gt;QR코드 생성 및 저장&lt;/span&gt;" style="rounded=0;whiteSpace=wrap;html=1;strokeWidth=2;" parent="1" vertex="1">
          <mxGeometry x="9.5" y="655" width="140" height="30" as="geometry" />
        </mxCell>
        <mxCell id="l5bOxNPtONh7WhocYYk5-28" value="&lt;span style=&quot;font-size: 15px;&quot;&gt;&lt;b&gt;&lt;i&gt;student_info.html&lt;/i&gt;&lt;/b&gt;&lt;/span&gt;" style="text;html=1;strokeColor=none;fillColor=none;align=left;verticalAlign=middle;whiteSpace=wrap;rounded=0;" parent="1" vertex="1">
          <mxGeometry x="9.5" y="585" width="100" height="30" as="geometry" />
        </mxCell>
        <mxCell id="l5bOxNPtONh7WhocYYk5-29" value="&lt;span style=&quot;font-size: 14px;&quot;&gt;관리자 등록/해제&lt;/span&gt;" style="rounded=0;whiteSpace=wrap;html=1;strokeWidth=2;" parent="1" vertex="1">
          <mxGeometry x="9.5" y="695" width="140" height="30" as="geometry" />
        </mxCell>
        <mxCell id="l5bOxNPtONh7WhocYYk5-30" value="&lt;span style=&quot;font-size: 14px;&quot;&gt;수강생 출결 조회&lt;/span&gt;" style="rounded=0;whiteSpace=wrap;html=1;strokeWidth=2;" parent="1" vertex="1">
          <mxGeometry x="9.5" y="735" width="140" height="30" as="geometry" />
        </mxCell>
        <mxCell id="l5bOxNPtONh7WhocYYk5-31" value="&lt;font color=&quot;#fafafa&quot;&gt;&lt;span style=&quot;font-size: 16px;&quot;&gt;&lt;b&gt;학생 수정 페이지&lt;/b&gt;&lt;/span&gt;&lt;/font&gt;" style="rounded=0;whiteSpace=wrap;html=1;strokeWidth=3;fillColor=#0A0A0A;" parent="1" vertex="1">
          <mxGeometry x="-170" y="950" width="140" height="30" as="geometry" />
        </mxCell>
        <mxCell id="l5bOxNPtONh7WhocYYk5-32" value="&lt;span style=&quot;font-size: 14px;&quot;&gt;QR코드 생성 및 저장&lt;/span&gt;" style="rounded=0;whiteSpace=wrap;html=1;strokeWidth=2;" parent="1" vertex="1">
          <mxGeometry x="-170" y="990" width="140" height="30" as="geometry" />
        </mxCell>
        <mxCell id="l5bOxNPtONh7WhocYYk5-33" value="&lt;span style=&quot;font-size: 15px;&quot;&gt;&lt;b&gt;&lt;i&gt;student_edit.html&lt;/i&gt;&lt;/b&gt;&lt;/span&gt;" style="text;html=1;strokeColor=none;fillColor=none;align=left;verticalAlign=middle;whiteSpace=wrap;rounded=0;" parent="1" vertex="1">
          <mxGeometry x="-170" y="920" width="140.5" height="30" as="geometry" />
        </mxCell>
        <mxCell id="l5bOxNPtONh7WhocYYk5-34" value="&lt;span style=&quot;font-size: 14px;&quot;&gt;관리자 등록/해제&lt;/span&gt;" style="rounded=0;whiteSpace=wrap;html=1;strokeWidth=2;" parent="1" vertex="1">
          <mxGeometry x="-170" y="1030" width="140" height="30" as="geometry" />
        </mxCell>
        <mxCell id="l5bOxNPtONh7WhocYYk5-35" value="&lt;span style=&quot;font-size: 14px;&quot;&gt;수강생 출결 조회&lt;/span&gt;" style="rounded=0;whiteSpace=wrap;html=1;strokeWidth=2;" parent="1" vertex="1">
          <mxGeometry x="-169" y="1070" width="140" height="30" as="geometry" />
        </mxCell>
        <mxCell id="l5bOxNPtONh7WhocYYk5-50" value="&lt;span style=&quot;font-size: 14px;&quot;&gt;관리자 정보 수정&lt;/span&gt;" style="rounded=0;whiteSpace=wrap;html=1;strokeWidth=2;" parent="1" vertex="1">
          <mxGeometry x="230" y="655" width="140" height="30" as="geometry" />
        </mxCell>
        <mxCell id="l5bOxNPtONh7WhocYYk5-51" value="&lt;font color=&quot;#fafafa&quot;&gt;&lt;span style=&quot;font-size: 16px;&quot;&gt;&lt;b&gt;퇴실 등록 페이지&lt;/b&gt;&lt;/span&gt;&lt;/font&gt;" style="rounded=0;whiteSpace=wrap;html=1;strokeWidth=3;fillColor=#0A0A0A;" parent="1" vertex="1">
          <mxGeometry x="920" y="955" width="140" height="30" as="geometry" />
        </mxCell>
        <mxCell id="l5bOxNPtONh7WhocYYk5-52" value="&lt;span style=&quot;font-size: 14px;&quot;&gt;QR코드 스캔&lt;/span&gt;" style="rounded=0;whiteSpace=wrap;html=1;strokeWidth=2;" parent="1" vertex="1">
          <mxGeometry x="920" y="995" width="140" height="30" as="geometry" />
        </mxCell>
        <mxCell id="l5bOxNPtONh7WhocYYk5-53" value="&lt;span style=&quot;font-size: 15px;&quot;&gt;&lt;b&gt;&lt;i&gt;class_end.html&lt;/i&gt;&lt;/b&gt;&lt;/span&gt;" style="text;html=1;strokeColor=none;fillColor=none;align=left;verticalAlign=middle;whiteSpace=wrap;rounded=0;" parent="1" vertex="1">
          <mxGeometry x="920" y="920" width="141.5" height="30" as="geometry" />
        </mxCell>
        <mxCell id="l5bOxNPtONh7WhocYYk5-54" value="&lt;span style=&quot;font-size: 14px;&quot;&gt;DB에 퇴실 등록&lt;/span&gt;" style="rounded=0;whiteSpace=wrap;html=1;strokeWidth=2;" parent="1" vertex="1">
          <mxGeometry x="920" y="1035" width="140" height="30" as="geometry" />
        </mxCell>
        <mxCell id="l5bOxNPtONh7WhocYYk5-56" value="&lt;font color=&quot;#fafafa&quot;&gt;&lt;span style=&quot;font-size: 16px;&quot;&gt;&lt;b&gt;QR 코드 생성&lt;/b&gt;&lt;/span&gt;&lt;/font&gt;" style="rounded=0;whiteSpace=wrap;html=1;strokeWidth=3;fillColor=#0A0A0A;" parent="1" vertex="1">
          <mxGeometry x="47.5" y="955" width="140" height="30" as="geometry" />
        </mxCell>
        <mxCell id="l5bOxNPtONh7WhocYYk5-57" value="&lt;span style=&quot;font-size: 14px;&quot;&gt;QR코드 생성 및 저장&lt;/span&gt;" style="rounded=0;whiteSpace=wrap;html=1;strokeWidth=2;" parent="1" vertex="1">
          <mxGeometry x="47.5" y="995" width="140" height="30" as="geometry" />
        </mxCell>
        <mxCell id="l5bOxNPtONh7WhocYYk5-58" value="&lt;span style=&quot;font-size: 15px;&quot;&gt;&lt;b&gt;&lt;i&gt;manage_QR.html&lt;/i&gt;&lt;/b&gt;&lt;/span&gt;" style="text;html=1;strokeColor=none;fillColor=none;align=left;verticalAlign=middle;whiteSpace=wrap;rounded=0;" parent="1" vertex="1">
          <mxGeometry x="47.5" y="925" width="140" height="30" as="geometry" />
        </mxCell>
        <mxCell id="l5bOxNPtONh7WhocYYk5-61" value="" style="endArrow=none;html=1;rounded=0;edgeStyle=orthogonalEdgeStyle;strokeWidth=2;entryX=0.5;entryY=1;entryDx=0;entryDy=0;exitX=0.5;exitY=0;exitDx=0;exitDy=0;" parent="1" source="l5bOxNPtONh7WhocYYk5-28" target="l5bOxNPtONh7WhocYYk5-5" edge="1">
          <mxGeometry width="50" height="50" relative="1" as="geometry">
            <mxPoint x="80" y="570" as="sourcePoint" />
            <mxPoint x="410" y="530" as="targetPoint" />
          </mxGeometry>
        </mxCell>
        <mxCell id="l5bOxNPtONh7WhocYYk5-62" value="" style="endArrow=none;html=1;rounded=0;edgeStyle=orthogonalEdgeStyle;strokeWidth=2;entryX=0.5;entryY=1;entryDx=0;entryDy=0;exitX=0.5;exitY=0;exitDx=0;exitDy=0;" parent="1" source="l5bOxNPtONh7WhocYYk5-8" target="l5bOxNPtONh7WhocYYk5-5" edge="1">
          <mxGeometry width="50" height="50" relative="1" as="geometry">
            <mxPoint x="70" y="595" as="sourcePoint" />
            <mxPoint x="424" y="520" as="targetPoint" />
          </mxGeometry>
        </mxCell>
        <mxCell id="l5bOxNPtONh7WhocYYk5-63" value="" style="endArrow=none;html=1;rounded=0;edgeStyle=orthogonalEdgeStyle;strokeWidth=2;entryX=0.5;entryY=1;entryDx=0;entryDy=0;exitX=0.5;exitY=0;exitDx=0;exitDy=0;" parent="1" source="l5bOxNPtONh7WhocYYk5-18" target="l5bOxNPtONh7WhocYYk5-5" edge="1">
          <mxGeometry width="50" height="50" relative="1" as="geometry">
            <mxPoint x="70" y="595" as="sourcePoint" />
            <mxPoint x="424" y="520" as="targetPoint" />
          </mxGeometry>
        </mxCell>
        <mxCell id="l5bOxNPtONh7WhocYYk5-64" value="" style="endArrow=none;html=1;rounded=0;edgeStyle=orthogonalEdgeStyle;strokeWidth=2;entryX=0.5;entryY=1;entryDx=0;entryDy=0;exitX=0.562;exitY=0;exitDx=0;exitDy=0;exitPerimeter=0;" parent="1" source="l5bOxNPtONh7WhocYYk5-23" target="l5bOxNPtONh7WhocYYk5-5" edge="1">
          <mxGeometry width="50" height="50" relative="1" as="geometry">
            <mxPoint x="531" y="595" as="sourcePoint" />
            <mxPoint x="424" y="520" as="targetPoint" />
          </mxGeometry>
        </mxCell>
        <mxCell id="l5bOxNPtONh7WhocYYk5-69" value="" style="endArrow=none;html=1;rounded=0;strokeWidth=2;entryX=0.5;entryY=1;entryDx=0;entryDy=0;exitX=0.5;exitY=0;exitDx=0;exitDy=0;edgeStyle=orthogonalEdgeStyle;" parent="1" source="l5bOxNPtONh7WhocYYk5-33" target="l5bOxNPtONh7WhocYYk5-30" edge="1">
          <mxGeometry width="50" height="50" relative="1" as="geometry">
            <mxPoint x="390" y="1240" as="sourcePoint" />
            <mxPoint x="440" y="1190" as="targetPoint" />
          </mxGeometry>
        </mxCell>
        <mxCell id="l5bOxNPtONh7WhocYYk5-70" value="" style="endArrow=none;html=1;rounded=0;strokeWidth=2;entryX=0.5;entryY=1;entryDx=0;entryDy=0;" parent="1" edge="1">
          <mxGeometry width="50" height="50" relative="1" as="geometry">
            <mxPoint x="414" y="330" as="sourcePoint" />
            <mxPoint x="414" y="280" as="targetPoint" />
          </mxGeometry>
        </mxCell>
        <mxCell id="l5bOxNPtONh7WhocYYk5-73" value="&lt;font color=&quot;#fafafa&quot;&gt;&lt;span style=&quot;font-size: 16px;&quot;&gt;&lt;b&gt;관리자 정보 수정&lt;/b&gt;&lt;/span&gt;&lt;/font&gt;" style="rounded=0;whiteSpace=wrap;html=1;strokeWidth=3;fillColor=#0A0A0A;" parent="1" vertex="1">
          <mxGeometry x="208" y="955" width="140" height="30" as="geometry" />
        </mxCell>
        <mxCell id="l5bOxNPtONh7WhocYYk5-74" value="&lt;span style=&quot;font-size: 14px;&quot;&gt;관리자 정보 수정&lt;/span&gt;" style="rounded=0;whiteSpace=wrap;html=1;strokeWidth=2;" parent="1" vertex="1">
          <mxGeometry x="208" y="995" width="140" height="30" as="geometry" />
        </mxCell>
        <mxCell id="l5bOxNPtONh7WhocYYk5-75" value="&lt;span style=&quot;font-size: 15px;&quot;&gt;&lt;b&gt;&lt;i&gt;manage_edit.html&lt;/i&gt;&lt;/b&gt;&lt;/span&gt;" style="text;html=1;strokeColor=none;fillColor=none;align=left;verticalAlign=middle;whiteSpace=wrap;rounded=0;" parent="1" vertex="1">
          <mxGeometry x="208" y="925" width="140" height="30" as="geometry" />
        </mxCell>
        <mxCell id="l5bOxNPtONh7WhocYYk5-78" value="" style="endArrow=none;html=1;rounded=0;strokeWidth=2;entryX=0.5;entryY=1;entryDx=0;entryDy=0;exitX=0.5;exitY=0;exitDx=0;exitDy=0;edgeStyle=orthogonalEdgeStyle;" parent="1" source="l5bOxNPtONh7WhocYYk5-58" target="l5bOxNPtONh7WhocYYk5-7" edge="1">
          <mxGeometry width="50" height="50" relative="1" as="geometry">
            <mxPoint x="93" y="895" as="sourcePoint" />
            <mxPoint x="93" y="740" as="targetPoint" />
          </mxGeometry>
        </mxCell>
        <mxCell id="l5bOxNPtONh7WhocYYk5-79" value="" style="endArrow=none;html=1;rounded=0;strokeWidth=2;entryX=0.5;entryY=1;entryDx=0;entryDy=0;exitX=0.5;exitY=0;exitDx=0;exitDy=0;edgeStyle=orthogonalEdgeStyle;" parent="1" source="l5bOxNPtONh7WhocYYk5-75" target="l5bOxNPtONh7WhocYYk5-7" edge="1">
          <mxGeometry width="50" height="50" relative="1" as="geometry">
            <mxPoint x="313" y="895" as="sourcePoint" />
            <mxPoint x="313" y="819" as="targetPoint" />
          </mxGeometry>
        </mxCell>
        <mxCell id="l5bOxNPtONh7WhocYYk5-80" value="" style="endArrow=none;html=1;rounded=0;strokeWidth=2;entryX=0.5;entryY=1;entryDx=0;entryDy=0;exitX=0.5;exitY=0;exitDx=0;exitDy=0;edgeStyle=orthogonalEdgeStyle;" parent="1" source="l5bOxNPtONh7WhocYYk5-53" target="l5bOxNPtONh7WhocYYk5-24" edge="1">
          <mxGeometry width="50" height="50" relative="1" as="geometry">
            <mxPoint x="-90" y="930" as="sourcePoint" />
            <mxPoint x="748.5" y="765" as="targetPoint" />
            <Array as="points">
              <mxPoint x="991" y="840" />
              <mxPoint x="748" y="840" />
            </Array>
          </mxGeometry>
        </mxCell>
        <mxCell id="l5bOxNPtONh7WhocYYk5-81" value="&lt;font color=&quot;#fafafa&quot;&gt;&lt;span style=&quot;font-size: 16px;&quot;&gt;&lt;b&gt;강의 관리 페이지&lt;/b&gt;&lt;/span&gt;&lt;/font&gt;" style="rounded=0;whiteSpace=wrap;html=1;strokeWidth=3;fillColor=#0A0A0A;" parent="1" vertex="1">
          <mxGeometry x="368" y="955" width="140" height="30" as="geometry" />
        </mxCell>
        <mxCell id="l5bOxNPtONh7WhocYYk5-82" value="&lt;span style=&quot;font-size: 14px;&quot;&gt;강의 추가&lt;/span&gt;" style="rounded=0;whiteSpace=wrap;html=1;strokeWidth=2;" parent="1" vertex="1">
          <mxGeometry x="368" y="995" width="140" height="30" as="geometry" />
        </mxCell>
        <mxCell id="l5bOxNPtONh7WhocYYk5-83" value="&lt;span style=&quot;font-size: 15px;&quot;&gt;&lt;b&gt;&lt;i&gt;manage_class.html&lt;/i&gt;&lt;/b&gt;&lt;/span&gt;" style="text;html=1;strokeColor=none;fillColor=none;align=left;verticalAlign=middle;whiteSpace=wrap;rounded=0;" parent="1" vertex="1">
          <mxGeometry x="368" y="925" width="140" height="30" as="geometry" />
        </mxCell>
        <mxCell id="l5bOxNPtONh7WhocYYk5-84" value="&lt;span style=&quot;font-size: 14px;&quot;&gt;강의 출결 관리&lt;/span&gt;" style="rounded=0;whiteSpace=wrap;html=1;strokeWidth=2;" parent="1" vertex="1">
          <mxGeometry x="368" y="1035" width="140" height="30" as="geometry" />
        </mxCell>
        <mxCell id="l5bOxNPtONh7WhocYYk5-86" value="&lt;font color=&quot;#fafafa&quot;&gt;&lt;span style=&quot;font-size: 16px;&quot;&gt;&lt;b&gt;설문 관리 페이지&lt;/b&gt;&lt;/span&gt;&lt;/font&gt;" style="rounded=0;whiteSpace=wrap;html=1;strokeWidth=3;fillColor=#0A0A0A;" parent="1" vertex="1">
          <mxGeometry x="538" y="955" width="140" height="30" as="geometry" />
        </mxCell>
        <mxCell id="l5bOxNPtONh7WhocYYk5-87" value="&lt;span style=&quot;font-size: 14px;&quot;&gt;강의 설문 추가/제거&lt;/span&gt;" style="rounded=0;whiteSpace=wrap;html=1;strokeWidth=2;" parent="1" vertex="1">
          <mxGeometry x="538" y="995" width="140" height="30" as="geometry" />
        </mxCell>
        <mxCell id="l5bOxNPtONh7WhocYYk5-88" value="&lt;span style=&quot;font-size: 15px;&quot;&gt;&lt;b&gt;&lt;i&gt;manage_survey.html&lt;/i&gt;&lt;/b&gt;&lt;/span&gt;" style="text;html=1;strokeColor=none;fillColor=none;align=left;verticalAlign=middle;whiteSpace=wrap;rounded=0;" parent="1" vertex="1">
          <mxGeometry x="538" y="925" width="140" height="30" as="geometry" />
        </mxCell>
        <mxCell id="l5bOxNPtONh7WhocYYk5-89" value="&lt;span style=&quot;font-size: 14px;&quot;&gt;설문 결과 조회&lt;/span&gt;" style="rounded=0;whiteSpace=wrap;html=1;strokeWidth=2;" parent="1" vertex="1">
          <mxGeometry x="538" y="1035" width="140" height="30" as="geometry" />
        </mxCell>
        <mxCell id="l5bOxNPtONh7WhocYYk5-96" value="" style="endArrow=none;html=1;rounded=0;strokeWidth=2;entryX=0.5;entryY=1;entryDx=0;entryDy=0;exitX=0.5;exitY=0;exitDx=0;exitDy=0;edgeStyle=orthogonalEdgeStyle;" parent="1" source="l5bOxNPtONh7WhocYYk5-83" target="l5bOxNPtONh7WhocYYk5-7" edge="1">
          <mxGeometry width="50" height="50" relative="1" as="geometry">
            <mxPoint x="288" y="895" as="sourcePoint" />
            <mxPoint x="313" y="819" as="targetPoint" />
          </mxGeometry>
        </mxCell>
        <mxCell id="l5bOxNPtONh7WhocYYk5-97" value="" style="endArrow=none;html=1;rounded=0;strokeWidth=2;entryX=0.5;entryY=1;entryDx=0;entryDy=0;exitX=0.5;exitY=0;exitDx=0;exitDy=0;edgeStyle=orthogonalEdgeStyle;" parent="1" source="l5bOxNPtONh7WhocYYk5-88" target="l5bOxNPtONh7WhocYYk5-7" edge="1">
          <mxGeometry width="50" height="50" relative="1" as="geometry">
            <mxPoint x="448" y="895" as="sourcePoint" />
            <mxPoint x="313" y="819" as="targetPoint" />
          </mxGeometry>
        </mxCell>
        <mxCell id="l5bOxNPtONh7WhocYYk5-99" value="&lt;span style=&quot;font-size: 14px;&quot;&gt;설문&lt;/span&gt;" style="rounded=0;whiteSpace=wrap;html=1;strokeWidth=2;" parent="1" vertex="1">
          <mxGeometry x="230" y="780" width="140" height="30" as="geometry" />
        </mxCell>
        <mxCell id="l5bOxNPtONh7WhocYYk5-101" value="&lt;span style=&quot;font-size: 14px;&quot;&gt;강의 별 수강생 명단&lt;/span&gt;" style="rounded=0;whiteSpace=wrap;html=1;strokeWidth=2;" parent="1" vertex="1">
          <mxGeometry x="368" y="1120" width="140" height="30" as="geometry" />
        </mxCell>
        <mxCell id="l5bOxNPtONh7WhocYYk5-102" value="&lt;font color=&quot;#fafafa&quot;&gt;&lt;span style=&quot;font-size: 16px;&quot;&gt;&lt;b&gt;관리자 등록 / 해제&lt;/b&gt;&lt;/span&gt;&lt;/font&gt;" style="rounded=0;whiteSpace=wrap;html=1;strokeWidth=3;fillColor=#0A0A0A;" parent="1" vertex="1">
          <mxGeometry x="700" y="955" width="140" height="30" as="geometry" />
        </mxCell>
        <mxCell id="l5bOxNPtONh7WhocYYk5-103" value="&lt;span style=&quot;font-size: 14px;&quot;&gt;관리자 등록 / 해제&lt;/span&gt;" style="rounded=0;whiteSpace=wrap;html=1;strokeWidth=2;" parent="1" vertex="1">
          <mxGeometry x="700" y="995" width="140" height="30" as="geometry" />
        </mxCell>
        <mxCell id="l5bOxNPtONh7WhocYYk5-104" value="&lt;span style=&quot;font-size: 15px;&quot;&gt;&lt;b&gt;&lt;i&gt;manage_manager.html&lt;/i&gt;&lt;/b&gt;&lt;/span&gt;" style="text;html=1;strokeColor=none;fillColor=none;align=left;verticalAlign=middle;whiteSpace=wrap;rounded=0;" parent="1" vertex="1">
          <mxGeometry x="700" y="925" width="140" height="30" as="geometry" />
        </mxCell>
        <mxCell id="l5bOxNPtONh7WhocYYk5-106" value="" style="endArrow=none;html=1;rounded=0;strokeWidth=2;entryX=0.5;entryY=1;entryDx=0;entryDy=0;exitX=0.5;exitY=0;exitDx=0;exitDy=0;edgeStyle=orthogonalEdgeStyle;" parent="1" source="l5bOxNPtONh7WhocYYk5-104" target="l5bOxNPtONh7WhocYYk5-7" edge="1">
          <mxGeometry width="50" height="50" relative="1" as="geometry">
            <mxPoint x="618" y="935" as="sourcePoint" />
            <mxPoint x="311" y="865" as="targetPoint" />
          </mxGeometry>
        </mxCell>
        <mxCell id="l5bOxNPtONh7WhocYYk5-108" value="" style="endArrow=none;html=1;rounded=0;strokeWidth=2;entryX=0.5;entryY=1;entryDx=0;entryDy=0;" parent="1" edge="1">
          <mxGeometry width="50" height="50" relative="1" as="geometry">
            <mxPoint x="414" y="180" as="sourcePoint" />
            <mxPoint x="414" y="130" as="targetPoint" />
          </mxGeometry>
        </mxCell>
        <mxCell id="rHzAOFjqMWHSWhLFRDeC-1" value="&lt;span style=&quot;font-size: 14px;&quot;&gt;강의 정보 수정&lt;/span&gt;" style="rounded=0;whiteSpace=wrap;html=1;strokeWidth=2;" vertex="1" parent="1">
          <mxGeometry x="368" y="1078" width="140" height="30" as="geometry" />
        </mxCell>
      </root>
    </mxGraphModel>
  </diagram>
</mxfile>
